<svg width="48" height="48" viewBox="0 0 48 48" fill="none" xmlns="http://www.w3.org/2000/svg">
<path d="M24 10.6084C26.7679 10.6084 36.5485 7.48728 36.5485 7.48728C38.4685 7.14049 42.4731 6.90468 43.1314 8.73572C43.7565 10.4744 43.0757 12.4532 42.5321 14.0337C42.36 14.5338 42.2017 14.994 42.1028 15.3941C41.6914 17.0587 41.28 20.1798 43.7485 19.9717C46.2171 19.7636 47.04 18.3071 47.04 15.3941C47.04 12.4811 46.4228 7.69537 43.3371 6.23885C40.2514 4.78234 32.8457 2.7016 24 2.7016V10.6084Z" fill="#F5F5F7"/>
<path d="M24 10.6084C21.12 10.6084 11.4514 7.48728 11.4514 7.48728C9.53138 7.14049 5.52681 6.90468 4.86853 8.73572C4.24345 10.4744 4.92417 12.4532 5.46787 14.0337C5.6399 14.5338 5.79821 14.994 5.8971 15.3941C6.30853 17.0587 6.71996 20.1798 4.25139 19.9717C1.78282 19.7636 0.959961 18.3071 0.959961 15.3941C0.959961 12.4811 1.5771 7.69537 4.66282 6.23885C7.74853 4.78234 15.1542 2.7016 24 2.7016V10.6084Z" fill="#F5F5F7"/>
<path d="M21.6021 27.6297C19.9341 27.0004 15.5971 25.7416 11.5938 25.7416C7.59048 25.7416 3.11453 26.7206 1.37697 27.2102L0.959961 30.5669C1.44648 30.6368 2.41951 30.8606 2.41951 31.1962C2.41951 31.6158 2.74079 40.1767 7.84068 41.6859C11.3853 42.7349 15.1384 42.1055 17.2235 40.4272C18.1445 39.6858 21.1851 36.4411 21.6021 33.504C21.9053 31.3689 23.0617 31.1962 23.8957 31.1496H24.1042C24.8593 31.1496 26.0947 31.3689 26.3978 33.504C26.8148 36.4411 29.8554 39.6858 30.7764 40.4272C32.8615 42.1055 36.6146 42.7349 40.1592 41.6859C45.2591 40.1767 45.5804 31.6158 45.5804 31.1962C45.5804 30.8606 46.5534 30.6368 47.04 30.5669L46.6229 27.2102C44.8854 26.7206 40.4094 25.7416 36.4061 25.7416C32.4028 25.7416 28.0658 27.0004 26.3978 27.6297C24.7297 28.2591 23.2702 28.2591 21.6021 27.6297Z" fill="#F5F5F7"/>
<path fill-rule="evenodd" clip-rule="evenodd" d="M11.7664 26.9759C8.36591 26.9759 3.88484 27.4794 4.05164 32.0109C4.26015 37.6754 6.55373 40.8223 11.3494 40.8223C16.145 40.8223 19.5629 37.2267 20.1067 32.8501C20.172 32.3245 20.3141 30.2918 19.0631 29.033C18.2453 28.2102 15.5659 26.9759 11.7664 26.9759ZM36.2761 26.9759C39.6766 26.9759 44.1577 27.4794 43.9909 32.0109C43.7824 37.6754 41.4888 40.8223 36.6931 40.8223C31.8975 40.8223 28.4796 37.2267 27.9359 32.8501C27.8706 32.3245 27.7284 30.2918 28.9795 29.033C29.7973 28.2102 32.4766 26.9759 36.2761 26.9759Z" fill="url(#paint0_linear_1048_304)"/>
<path fill-rule="evenodd" clip-rule="evenodd" d="M5.10965 29.5761C4.72331 30.164 4.49266 30.943 4.53132 31.9933C4.63375 34.776 5.24739 36.8598 6.35477 38.2404C7.44491 39.5996 9.06636 40.3423 11.3494 40.3423C15.8725 40.3423 19.1126 36.9585 19.6303 32.7909C19.6597 32.5545 19.7078 31.9624 19.6041 31.2896C19.5 30.614 19.2501 29.9022 18.7226 29.3714C18.3897 29.0364 17.5965 28.5522 16.3825 28.1517C15.1838 27.7562 13.6148 27.4559 11.7664 27.4559C10.0707 27.4559 8.19227 27.5851 6.76976 28.2311C6.06811 28.5498 5.49783 28.9853 5.10965 29.5761ZM11.7664 26.9759C8.36591 26.9759 3.88484 27.4794 4.05164 32.0109C4.26015 37.6754 6.55373 40.8223 11.3494 40.8223C16.145 40.8223 19.5629 37.2267 20.1067 32.8501C20.172 32.3245 20.3141 30.2918 19.0631 29.033C18.2453 28.2102 15.5659 26.9759 11.7664 26.9759Z" fill="white"/>
<path fill-rule="evenodd" clip-rule="evenodd" d="M42.9328 29.5761C43.3192 30.164 43.5498 30.943 43.5112 31.9933C43.4087 34.776 42.7951 36.8598 41.6877 38.2404C40.5976 39.5996 38.9761 40.3423 36.6931 40.3423C32.17 40.3423 28.9299 36.9585 28.4122 32.7909C28.3828 32.5545 28.3347 31.9624 28.4384 31.2896C28.5425 30.614 28.7923 29.9022 29.3199 29.3714C29.6528 29.0364 30.446 28.5522 31.66 28.1517C32.8587 27.7562 34.4276 27.4559 36.2761 27.4559C37.9718 27.4559 39.8502 27.5851 41.2727 28.2311C41.9744 28.5498 42.5447 28.9853 42.9328 29.5761ZM36.2761 26.9759C39.6766 26.9759 44.1576 27.4794 43.9908 32.0109C43.7823 37.6754 41.4888 40.8223 36.6931 40.8223C31.8974 40.8223 28.4795 37.2267 27.9358 32.8501C27.8705 32.3245 27.7284 30.2918 28.9794 29.033C29.7972 28.2102 32.4766 26.9759 36.2761 26.9759Z" fill="white"/>
<path fill-rule="evenodd" clip-rule="evenodd" d="M26.5777 44.5784C26.5373 44.4638 26.4866 44.369 26.4284 44.304L26.3781 44.4051L26.3717 44.415C26.2629 44.5826 26.098 44.6813 25.8995 44.7176C25.6992 44.7542 25.5082 44.7183 25.3383 44.608C25.1714 44.4996 25.0596 44.3453 25.0125 44.1527C24.9613 43.9417 25.0065 43.7374 25.1271 43.5517C25.2746 43.3244 25.4895 43.1907 25.7579 43.1628C25.9814 43.1396 26.2745 43.1386 26.5659 43.3278C26.8728 43.5271 27.0628 43.8617 27.1772 44.1572C27.2928 44.4558 27.344 44.7477 27.353 44.9018C27.3589 45.0016 27.3385 45.1065 27.2682 45.1884C27.1954 45.2731 27.0946 45.3033 27.005 45.2978C26.8414 45.2876 26.6765 45.1561 26.6603 44.9571C26.6542 44.8826 26.6311 44.7302 26.5777 44.5784Z" fill="#F5F5F7"/>
<path fill-rule="evenodd" clip-rule="evenodd" d="M21.8965 44.5784C21.9368 44.4638 21.9875 44.369 22.0458 44.304L22.096 44.4051L22.1024 44.415C22.2113 44.5826 22.3762 44.6813 22.5746 44.7176C22.7749 44.7542 22.9659 44.7183 23.1358 44.608C23.3027 44.4996 23.4145 44.3453 23.4616 44.1527C23.5128 43.9417 23.4676 43.7374 23.3471 43.5517C23.1995 43.3244 22.9846 43.1907 22.7162 43.1628C22.4928 43.1396 22.1996 43.1386 21.9082 43.3278C21.6013 43.5271 21.4113 43.8617 21.2969 44.1572C21.1813 44.4558 21.1301 44.7477 21.1211 44.9018C21.1152 45.0016 21.1356 45.1065 21.2059 45.1884C21.2787 45.2731 21.3795 45.3033 21.4691 45.2978C21.6327 45.2876 21.7976 45.1561 21.8139 44.9571C21.8199 44.8826 21.843 44.7302 21.8965 44.5784Z" fill="#F5F5F7"/>
<defs>
<linearGradient id="paint0_linear_1048_304" x1="5.05011" y1="37.8877" x2="20.8623" y2="15.9393" gradientUnits="userSpaceOnUse">
<stop stop-color="#E4B063"/>
<stop offset="1" stop-color="#CB66B5"/>
</linearGradient>
</defs>
</svg>
