<svg width="49" height="48" viewBox="0 0 49 48" fill="none" xmlns="http://www.w3.org/2000/svg">
<path d="M24.5 10.6084C27.2679 10.6084 37.0485 7.48734 37.0485 7.48734C38.9685 7.14055 42.9731 6.90473 43.6314 8.73578C44.2565 10.4745 43.5757 12.4533 43.0321 14.0338C42.86 14.5339 42.7017 14.994 42.6028 15.3941C42.1914 17.0587 41.78 20.1798 44.2485 19.9718C46.7171 19.7637 47.54 18.3072 47.54 15.3941C47.54 12.4811 46.9228 7.69542 43.8371 6.23891C40.7514 4.78239 33.3457 2.70166 24.5 2.70166V10.6084Z" fill="#1D1D1F"/>
<path d="M24.5 10.6084C21.62 10.6085 11.9514 7.48734 11.9514 7.48734C10.0314 7.14055 6.02681 6.90473 5.36853 8.73578C4.74345 10.4745 5.42417 12.4533 5.96787 14.0338C6.1399 14.5339 6.29821 14.994 6.3971 15.3941C6.80853 17.0587 7.21996 20.1798 4.75139 19.9718C2.28282 19.7637 1.45996 18.3072 1.45996 15.3941C1.45996 12.4811 2.0771 7.69542 5.16282 6.23891C8.24853 4.78239 15.6542 2.70166 24.5 2.70166V10.6084Z" fill="#1D1D1F"/>
<path d="M22.1021 27.6298C20.4341 27.0005 16.0971 25.7417 12.0938 25.7417C8.09048 25.7417 3.61453 26.7207 1.87697 27.2103L1.45996 30.567C1.94648 30.6369 2.91951 30.8607 2.91951 31.1963C2.91951 31.6159 3.24079 40.1768 8.34068 41.686C11.8853 42.735 15.6384 42.1056 17.7235 40.4273C18.6445 39.6859 21.6851 36.4412 22.1021 33.5041C22.4053 31.369 23.5617 31.1963 24.3957 31.1497H24.6042C25.3593 31.1497 26.5947 31.369 26.8978 33.5041C27.3148 36.4412 30.3554 39.6859 31.2764 40.4273C33.3615 42.1056 37.1146 42.735 40.6592 41.686C45.7591 40.1768 46.0804 31.6159 46.0804 31.1963C46.0804 30.8607 47.0534 30.6369 47.54 30.567L47.1229 27.2103C45.3854 26.7207 40.9094 25.7417 36.9061 25.7417C32.9028 25.7417 28.5658 27.0005 26.8978 27.6298C25.2297 28.2592 23.7702 28.2592 22.1021 27.6298Z" fill="#1D1D1F"/>
<path fill-rule="evenodd" clip-rule="evenodd" d="M12.2664 26.976C8.86591 26.976 4.38484 27.4795 4.55164 32.011C4.76015 37.6754 7.05373 40.8223 11.8494 40.8223C16.645 40.8223 20.0629 37.2268 20.6067 32.8502C20.672 32.3245 20.8141 30.2919 19.5631 29.0331C18.7453 28.2102 16.0659 26.976 12.2664 26.976ZM36.7761 26.976C40.1766 26.976 44.6577 27.4795 44.4909 32.011C44.2824 37.6754 41.9888 40.8223 37.1931 40.8223C32.3975 40.8223 28.9796 37.2268 28.4359 32.8502C28.3706 32.3245 28.2284 30.2919 29.4795 29.0331C30.2973 28.2102 32.9766 26.976 36.7761 26.976Z" fill="url(#paint0_linear_1064_113)"/>
<path fill-rule="evenodd" clip-rule="evenodd" d="M5.60965 29.5761C5.22331 30.164 4.99266 30.943 5.03132 31.9933C5.13375 34.7761 5.74739 36.8598 6.85477 38.2405C7.94491 39.5997 9.56636 40.3423 11.8494 40.3423C16.3725 40.3423 19.6126 36.9585 20.1303 32.791C20.1597 32.5546 20.2078 31.9625 20.1041 31.2897C20 30.614 19.7501 29.9022 19.2226 29.3715C18.8897 29.0365 18.0965 28.5523 16.8825 28.1518C15.6838 27.7563 14.1148 27.456 12.2664 27.456C10.5707 27.456 8.69227 27.5852 7.26976 28.2312C6.56811 28.5498 5.99783 28.9854 5.60965 29.5761ZM12.2664 26.976C8.86591 26.976 4.38484 27.4795 4.55164 32.011C4.76015 37.6754 7.05373 40.8223 11.8494 40.8223C16.645 40.8223 20.0629 37.2268 20.6067 32.8502C20.672 32.3245 20.8141 30.2919 19.5631 29.0331C18.7453 28.2102 16.0659 26.976 12.2664 26.976Z" fill="white"/>
<path fill-rule="evenodd" clip-rule="evenodd" d="M43.4328 29.5761C43.8192 30.164 44.0498 30.943 44.0112 31.9933C43.9087 34.7761 43.2951 36.8598 42.1877 38.2405C41.0976 39.5997 39.4761 40.3423 37.1931 40.3423C32.67 40.3423 29.4299 36.9585 28.9122 32.791C28.8828 32.5546 28.8347 31.9625 28.9384 31.2897C29.0425 30.614 29.2923 29.9022 29.8199 29.3715C30.1528 29.0365 30.946 28.5523 32.16 28.1518C33.3587 27.7563 34.9276 27.456 36.7761 27.456C38.4718 27.456 40.3502 27.5852 41.7727 28.2312C42.4744 28.5498 43.0447 28.9854 43.4328 29.5761ZM36.7761 26.976C40.1766 26.976 44.6576 27.4795 44.4908 32.011C44.2823 37.6754 41.9888 40.8223 37.1931 40.8223C32.3974 40.8223 28.9795 37.2268 28.4358 32.8502C28.3705 32.3245 28.2284 30.2919 29.4794 29.0331C30.2972 28.2102 32.9766 26.976 36.7761 26.976Z" fill="white"/>
<path fill-rule="evenodd" clip-rule="evenodd" d="M27.0777 44.5784C27.0373 44.4638 26.9866 44.3691 26.9284 44.304L26.8781 44.4051L26.8717 44.415C26.7629 44.5827 26.598 44.6813 26.3995 44.7176C26.1992 44.7543 26.0082 44.7183 25.8383 44.608C25.6714 44.4996 25.5596 44.3453 25.5125 44.1528C25.4613 43.9417 25.5065 43.7374 25.6271 43.5517C25.7746 43.3245 25.9895 43.1908 26.2579 43.1629C26.4814 43.1396 26.7745 43.1387 27.0659 43.3279C27.3728 43.5271 27.5628 43.8617 27.6772 44.1573C27.7928 44.4558 27.844 44.7477 27.853 44.9018C27.8589 45.0017 27.8385 45.1066 27.7682 45.1884C27.6954 45.2731 27.5946 45.3033 27.505 45.2978C27.3414 45.2877 27.1765 45.1562 27.1603 44.9571C27.1542 44.8826 27.1311 44.7303 27.0777 44.5784Z" fill="#1D1D1F"/>
<path fill-rule="evenodd" clip-rule="evenodd" d="M22.3965 44.5784C22.4368 44.4638 22.4875 44.3691 22.5458 44.304L22.596 44.4051L22.6024 44.415C22.7113 44.5827 22.8762 44.6813 23.0746 44.7176C23.2749 44.7543 23.4659 44.7183 23.6358 44.608C23.8027 44.4996 23.9145 44.3453 23.9616 44.1528C24.0128 43.9417 23.9676 43.7374 23.8471 43.5517C23.6995 43.3245 23.4846 43.1908 23.2162 43.1629C22.9928 43.1396 22.6996 43.1387 22.4082 43.3279C22.1013 43.5271 21.9113 43.8617 21.7969 44.1573C21.6813 44.4558 21.6301 44.7477 21.6211 44.9018C21.6152 45.0017 21.6356 45.1066 21.7059 45.1884C21.7787 45.2731 21.8795 45.3033 21.9691 45.2978C22.1327 45.2877 22.2976 45.1562 22.3139 44.9571C22.3199 44.8826 22.343 44.7303 22.3965 44.5784Z" fill="#1D1D1F"/>
<defs>
<linearGradient id="paint0_linear_1064_113" x1="5.55011" y1="37.8878" x2="21.3623" y2="15.9394" gradientUnits="userSpaceOnUse">
<stop stop-color="#E4B063"/>
<stop offset="1" stop-color="#CB66B5"/>
</linearGradient>
</defs>
</svg>
