<svg width="50" height="50" viewBox="0 0 50 50" fill="none" xmlns="http://www.w3.org/2000/svg">
<path d="M25 11.0504C27.8833 11.0504 38.0714 7.79926 38.0714 7.79926C40.0714 7.43802 44.2429 7.19238 44.9286 9.09972C45.5797 10.9109 44.8706 12.9721 44.3043 14.6185C44.1251 15.1394 43.9602 15.6188 43.8572 16.0355C43.4286 17.7695 43 21.0206 45.5714 20.8039C48.1429 20.5871 49 19.0699 49 16.0355C49 13.0011 48.3571 8.01601 45.1429 6.49881C41.9286 4.98161 34.2143 2.81418 25 2.81418V11.0504Z" fill="#14120D"/>
<path d="M25 11.0504C22 11.0504 11.9286 7.79926 11.9286 7.79926C9.92857 7.43802 5.75714 7.19238 5.07142 9.09972C4.4203 10.9109 5.12939 12.9721 5.69574 14.6185C5.87493 15.1394 6.03984 15.6188 6.14285 16.0355C6.57142 17.7695 7 21.0206 4.42857 20.8039C1.85714 20.5871 1 19.0699 1 16.0355C1 13.0011 1.64286 8.01601 4.85714 6.49881C8.07143 4.98161 15.7857 2.81418 25 2.81418V11.0504Z" fill="#14120D"/>
<path d="M22.5023 28.781C20.7647 28.1254 16.2471 26.8142 12.0769 26.8142C7.90679 26.8142 3.24434 27.834 1.43439 28.3439L1 31.8405C1.50679 31.9133 2.52036 32.1464 2.52036 32.4961C2.52036 32.9332 2.85503 41.8507 8.16742 43.4228C11.8597 44.5155 15.7692 43.8599 17.9412 42.1116C18.9006 41.3394 22.0679 37.9595 22.5023 34.9C22.818 32.676 24.0226 32.4961 24.8914 32.4475H25.1086C25.8951 32.4475 27.182 32.676 27.4977 34.9C27.9321 37.9595 31.0994 41.3394 32.0588 42.1116C34.2308 43.8599 38.1403 44.5155 41.8326 43.4228C47.145 41.8507 47.4796 32.9332 47.4796 32.4961C47.4796 32.1464 48.4932 31.9133 49 31.8405L48.5656 28.3439C46.7557 27.834 42.0932 26.8142 37.9231 26.8142C33.7529 26.8142 29.2353 28.1254 27.4977 28.781C25.7602 29.4366 24.2398 29.4366 22.5023 28.781Z" fill="#14120D"/>
<path fill-rule="evenodd" clip-rule="evenodd" d="M12.2567 28.0999C8.71457 28.0999 4.04678 28.6244 4.22053 33.3447C4.43773 39.2452 6.82687 42.5232 11.8223 42.5232C16.8178 42.5232 20.3781 38.7778 20.9445 34.2189C21.0125 33.6713 21.1606 31.554 19.8574 30.2427C19.0055 29.3856 16.2146 28.0999 12.2567 28.0999ZM37.7877 28.0999C41.3299 28.0999 45.9977 28.6244 45.8239 33.3447C45.6067 39.2452 43.2176 42.5232 38.2221 42.5232C33.2266 42.5232 29.6663 38.7778 29.0999 34.2189C29.0319 33.6713 28.8838 31.554 30.187 30.2427C31.0389 29.3856 33.8299 28.0999 37.7877 28.0999Z" fill="url(#paint0_linear_931_19)"/>
<path fill-rule="evenodd" clip-rule="evenodd" d="M5.32262 30.8084C4.92019 31.4208 4.67992 32.2322 4.72019 33.3263C4.82689 36.225 5.4661 38.3956 6.61962 39.8338C7.75519 41.2496 9.44419 42.0232 11.8223 42.0232C16.534 42.0232 19.909 38.4984 20.4483 34.1572C20.4789 33.911 20.529 33.2942 20.421 32.5933C20.3125 31.8895 20.0523 31.1481 19.5028 30.5952C19.156 30.2463 18.3297 29.7419 17.0652 29.3247C15.8165 28.9127 14.1822 28.5999 12.2567 28.5999C10.4904 28.5999 8.53369 28.7345 7.05191 29.4074C6.32102 29.7393 5.72698 30.1931 5.32262 30.8084ZM12.2567 28.0999C8.71457 28.0999 4.04678 28.6244 4.22053 33.3447C4.43773 39.2452 6.82687 42.5232 11.8223 42.5232C16.8178 42.5232 20.3781 38.7778 20.9445 34.2189C21.0125 33.6713 21.1606 31.554 19.8574 30.2427C19.0055 29.3856 16.2146 28.0999 12.2567 28.0999Z" fill="white"/>
<path fill-rule="evenodd" clip-rule="evenodd" d="M44.7218 30.8084C45.1242 31.4208 45.3645 32.2322 45.3242 33.3263C45.2175 36.225 44.5783 38.3956 43.4248 39.8338C42.2892 41.2496 40.6002 42.0232 38.2221 42.0232C33.5105 42.0232 30.1354 38.4984 29.5961 34.1572C29.5655 33.911 29.5154 33.2942 29.6234 32.5933C29.7319 31.8895 29.9921 31.1481 30.5416 30.5952C30.8884 30.2463 31.7147 29.7419 32.9793 29.3247C34.2279 28.9127 35.8622 28.5999 37.7877 28.5999C39.5541 28.5999 41.5107 28.7345 42.9925 29.4074C43.7234 29.7393 44.3175 30.1931 44.7218 30.8084ZM37.7877 28.0999C41.3299 28.0999 45.9977 28.6244 45.8239 33.3447C45.6067 39.2452 43.2176 42.5232 38.2221 42.5232C33.2266 42.5232 29.6663 38.7778 29.0999 34.2189C29.0319 33.6713 28.8838 31.554 30.187 30.2427C31.0389 29.3856 33.8299 28.0999 37.7877 28.0999Z" fill="white"/>
<path fill-rule="evenodd" clip-rule="evenodd" d="M27.6852 46.4358C27.6433 46.3165 27.5904 46.2177 27.5297 46.15L27.4774 46.2553L27.4707 46.2656C27.3573 46.4402 27.1856 46.543 26.9789 46.5808C26.7702 46.619 26.5713 46.5816 26.3943 46.4666C26.2204 46.3537 26.1039 46.193 26.0549 45.9924C26.0015 45.7726 26.0486 45.5598 26.1742 45.3663C26.3279 45.1296 26.5517 44.9904 26.8313 44.9613C27.0641 44.9371 27.3694 44.9361 27.673 45.1332C27.9927 45.3407 28.1906 45.6893 28.3098 45.9971C28.4302 46.3081 28.4835 46.6122 28.4929 46.7727C28.499 46.8767 28.4778 46.986 28.4045 47.0712C28.3287 47.1595 28.2238 47.1909 28.1304 47.1852C27.96 47.1746 27.7882 47.0377 27.7713 46.8303C27.765 46.7527 27.7409 46.594 27.6852 46.4358Z" fill="#14120D"/>
<path fill-rule="evenodd" clip-rule="evenodd" d="M22.8089 46.4358C22.8509 46.3165 22.9038 46.2177 22.9644 46.15L23.0167 46.2553L23.0234 46.2656C23.1368 46.4402 23.3086 46.543 23.5153 46.5808C23.7239 46.619 23.9229 46.5816 24.0999 46.4666C24.2738 46.3537 24.3902 46.193 24.4392 45.9924C24.4926 45.7726 24.4455 45.5598 24.3199 45.3663C24.1663 45.1296 23.9424 44.9904 23.6628 44.9613C23.43 44.9371 23.1247 44.9361 22.8212 45.1332C22.5014 45.3407 22.3036 45.6893 22.1844 45.9971C22.064 46.3081 22.0106 46.6122 22.0012 46.7727C21.9951 46.8767 22.0164 46.986 22.0896 47.0712C22.1654 47.1595 22.2704 47.1909 22.3638 47.1852C22.5342 47.1746 22.7059 47.0377 22.7228 46.8303C22.7292 46.7527 22.7533 46.594 22.8089 46.4358Z" fill="#14120D"/>
<defs>
<linearGradient id="paint0_linear_931_19" x1="5.2606" y1="39.4664" x2="21.7317" y2="16.6035" gradientUnits="userSpaceOnUse">
<stop stop-color="#E4B063"/>
<stop offset="1" stop-color="#CB66B5"/>
</linearGradient>
</defs>
</svg>
